<?xml version="1.0" encoding="utf-8"?>
<svg viewBox="0 0 500 500" xmlns="http://www.w3.org/2000/svg">
  <ellipse cx="243.514" cy="262.136" rx="174.247" ry="159.737" fill="#DA8B16" style=""/>
  <rect width="75.131" height="51.003" rx="33" transform="matrix(0.5485261082649231, 0.8361330032348633, -0.9261040091514587, 0.41138195991516113, 406.1791076660156, 156.56788635253903)" fill="#FFDF8C" style=""/>
  <path d="M 310.216 427.698 C 310.522 431.032 308.221 433.784 304.795 434.178 L 266.8 438.552 C 259.836 439.354 255.56 430.329 261.313 426.97 C 262.78 426.114 263.727 424.669 263.925 422.984 L 265.867 406.469 C 266.092 404.546 265.401 402.523 263.972 400.93 L 260.884 397.486 C 256.973 393.123 259.292 386.961 264.931 386.733 L 298.691 385.371 C 302.8 385.206 306.616 388.426 306.977 392.364 L 310.216 427.698 Z" fill="#F2D792" style=""/>
  <path d="M 429.099 204.178 C 441.992 202.558 454.393 212.016 455.367 224.211 L 460.457 287.975 C 461.229 297.635 454.455 305.865 444.346 307.551 L 417.836 311.972 C 405.903 313.961 393.757 306.198 391.121 294.896 L 376.283 231.268 C 373.724 220.294 381.138 210.206 392.842 208.735 L 429.099 204.178 Z" fill="#FFD76F" style=""/>
  <path d="M 396.885 387.284 C 401.283 396.749 397.313 407.211 387.648 411.618 L 324.18 440.567 C 312.603 445.848 297.814 440.349 292.845 428.916 L 278.851 396.72 C 274.337 386.334 279.806 375.177 291.067 371.8 L 357.729 351.811 C 368.796 348.492 381.382 353.923 386.086 364.047 L 396.885 387.284 Z" fill="#FFD76F" style=""/>
  <rect x="513.598" y="279.167" width="129.301" height="87.621" rx="33" transform="matrix(-0.5185030102729797, 0.855076014995575, -0.8771150708198547, -0.48215702176094055, 982.8360595703125, -0.18502999842169743)" fill="#FBCD57" style=""/>
  <rect width="77.787" height="49.261" rx="33" transform="matrix(-0.9994530081748962, 0.033059000968933105, 0.092010997235775, -1.0035899877548218, 252.26853942871094, 441.16455078125)" fill="#FFDF8C" style=""/>
  <path d="M 53.637 226.473 C 50.451 225.058 49.1 221.785 50.454 218.763 L 65.472 185.247 C 68.225 179.103 78.572 180.09 78.75 186.513 C 78.796 188.151 79.637 189.654 81.07 190.66 L 95.122 200.519 C 96.757 201.666 98.944 202.107 101.107 201.726 L 105.783 200.902 C 111.708 199.857 116.153 204.851 113.54 209.615 L 97.899 238.133 C 95.996 241.604 91.158 243.141 87.396 241.469 L 53.637 226.473 Z" fill="#F2D792" style=""/>
  <path d="M 197.503 436.259 C 192.531 447.7 177.728 453.196 166.149 447.902 L 105.605 420.218 C 96.432 416.023 92.334 406.323 95.855 397.145 L 105.09 373.075 C 109.246 362.241 122.381 356.108 133.978 359.586 L 199.272 379.164 C 210.532 382.541 216.001 393.698 211.487 404.084 L 197.503 436.259 Z" fill="#FFD76F" style=""/>
  <path d="M 47.063 318.143 C 36.254 317.038 28.724 308.533 29.547 298.36 L 34.95 231.553 C 35.936 219.366 48.332 209.921 61.216 211.54 L 97.497 216.1 C 109.201 217.571 116.614 227.658 114.055 238.632 L 98.906 303.594 C 96.391 314.378 85.159 322.041 73.598 320.858 L 47.063 318.143 Z" fill="#FFD76F" style=""/>
  <rect x="140.8" y="400.377" width="129.301" height="87.621" rx="33" transform="matrix(-0.5185030102729797, -0.855076014995575, 0.8771150708198547, -0.48215702176094055, -193.09414672851562, 734.7022094726562)" fill="#FBCD57" style=""/>
  <rect width="74.904" height="51.157" rx="33" transform="matrix(0.48773303627967834, -0.8729929327964783, 0.8347100615501404, 0.5562559962272644, 71.20980834960938, 172.3331146240234)" fill="#FFDF8C" style=""/>
  <path d="M 365.804 115.895 C 368.684 113.976 372.337 114.498 374.409 117.125 L 397.385 146.267 C 401.596 151.609 395.526 159.648 389.594 156.583 C 388.081 155.802 386.294 155.743 384.663 156.422 L 368.669 163.079 C 366.807 163.854 365.313 165.436 364.578 167.41 L 362.99 171.679 C 360.977 177.085 354.213 178.254 351.187 173.719 L 333.067 146.562 C 330.862 143.258 331.883 138.5 335.284 136.233 L 365.804 115.895 Z" fill="#F2D792" style=""/>
  <path d="M 103.055 129.629 C 95.135 119.808 97.537 104.854 108.142 97.954 L 163.595 61.873 C 171.996 56.407 182.868 57.877 189.457 65.371 L 206.733 85.02 C 214.508 93.864 213.52 107.761 204.558 115.585 L 154.102 159.635 C 145.401 167.231 132.518 166.162 125.328 157.247 L 103.055 129.629 Z" fill="#FFD76F" style=""/>
  <path d="M 285.71 64.639 C 292.119 56.279 303.621 54.322 312.462 60.087 L 370.527 97.947 C 381.119 104.853 383.512 119.797 375.597 129.611 L 353.309 157.247 C 346.119 166.162 333.236 167.231 324.535 159.635 L 273.022 114.662 C 264.47 107.196 263.117 94.103 269.973 85.161 L 285.71 64.639 Z" fill="#FFD76F" style=""/>
  <rect x="172.908" y="44.425" width="134.086" height="84.494" rx="33" fill="#FBCD57" style=""/>
</svg>