<?xml version="1.0" encoding="utf-8"?>
<svg viewBox="0 0 500 500" xmlns="http://www.w3.org/2000/svg">
  <ellipse cx="243.514" cy="262.136" rx="174.247" ry="159.737" fill="#DA8B16" style=""/>
  <rect width="75.131" height="51.003" rx="33" transform="matrix(0.5485261082649231, 0.8361330032348633, -0.9261040091514587, 0.41138195991516113, 406.1791076660156, 156.56788635253903)" fill="#FFDF8C" style=""/>
  <path d="M 310.216 427.698 C 310.522 431.032 308.221 433.784 304.795 434.178 L 266.8 438.552 C 259.836 439.354 255.56 430.329 261.313 426.97 C 262.78 426.114 263.727 424.669 263.925 422.984 L 265.867 406.469 C 266.092 404.546 265.401 402.523 263.972 400.93 L 260.884 397.486 C 256.973 393.123 259.292 386.961 264.931 386.733 L 298.691 385.371 C 302.8 385.206 306.616 388.426 306.977 392.364 L 310.216 427.698 Z" fill="#F2D792" style=""/>
  <path d="M 429.099 204.178 C 441.992 202.558 454.393 212.016 455.367 224.211 L 460.457 287.975 C 461.229 297.635 454.455 305.865 444.346 307.551 L 417.836 311.972 C 405.903 313.961 393.757 306.198 391.121 294.896 L 376.283 231.268 C 373.724 220.294 381.138 210.206 392.842 208.735 L 429.099 204.178 Z" fill="#FFD76F" style=""/>
  <path d="M 396.885 387.284 C 401.283 396.749 397.313 407.211 387.648 411.618 L 324.18 440.567 C 312.603 445.848 297.814 440.349 292.845 428.916 L 278.851 396.72 C 274.337 386.334 279.806 375.177 291.067 371.8 L 357.729 351.811 C 368.796 348.492 381.382 353.923 386.086 364.047 L 396.885 387.284 Z" fill="#FFD76F" style=""/>
  <rect x="513.598" y="279.167" width="129.301" height="87.621" rx="33" transform="matrix(-0.5185030102729797, 0.855076014995575, -0.8771150708198547, -0.48215702176094055, 982.8360595703125, -0.18502999842169743)" fill="#FBCD57" style=""/>
  <rect width="77.787" height="49.261" rx="33" transform="matrix(-0.9994530081748962, 0.033059000968933105, 0.092010997235775, -1.0035899877548218, 252.26853942871094, 441.16455078125)" fill="#FFDF8C" style=""/>
  <path d="M 53.637 226.473 C 50.451 225.058 49.1 221.785 50.454 218.763 L 65.472 185.247 C 68.225 179.103 78.572 180.09 78.75 186.513 C 78.796 188.151 79.637 189.654 81.07 190.66 L 95.122 200.519 C 96.757 201.666 98.944 202.107 101.107 201.726 L 105.783 200.902 C 111.708 199.857 116.153 204.851 113.54 209.615 L 97.899 238.133 C 95.996 241.604 91.158 243.141 87.396 241.469 L 53.637 226.473 Z" fill="#F2D792" style=""/>
  <path d="M 197.503 436.259 C 192.531 447.7 177.728 453.196 166.149 447.902 L 105.605 420.218 C 96.432 416.023 92.334 406.323 95.855 397.145 L 105.09 373.075 C 109.246 362.241 122.381 356.108 133.978 359.586 L 199.272 379.164 C 210.532 382.541 216.001 393.698 211.487 404.084 L 197.503 436.259 Z" fill="#FFD76F" style=""/>
  <path d="M 47.063 318.143 C 36.254 317.038 28.724 308.533 29.547 298.36 L 34.95 231.553 C 35.936 219.366 48.332 209.921 61.216 211.54 L 97.497 216.1 C 109.201 217.571 116.614 227.658 114.055 238.632 L 98.906 303.594 C 96.391 314.378 85.159 322.041 73.598 320.858 L 47.063 318.143 Z" fill="#FFD76F" style=""/>
  <rect x="140.8" y="400.377" width="129.301" height="87.621" rx="33" transform="matrix(-0.5185030102729797, -0.855076014995575, 0.8771150708198547, -0.48215702176094055, -193.09414672851562, 734.7022094726562)" fill="#FBCD57" style=""/>
  <rect width="74.904" height="51.157" rx="33" transform="matrix(0.48773303627967834, -0.8729929327964783, 0.8347100615501404, 0.5562559962272644, 71.20980834960938, 172.3331146240234)" fill="#FFDF8C" style=""/>
  <path d="M 365.804 115.895 C 368.684 113.976 372.337 114.498 374.409 117.125 L 397.385 146.267 C 401.596 151.609 395.526 159.648 389.594 156.583 C 388.081 155.802 386.294 155.743 384.663 156.422 L 368.669 163.079 C 366.807 163.854 365.313 165.436 364.578 167.41 L 362.99 171.679 C 360.977 177.085 354.213 178.254 351.187 173.719 L 333.067 146.562 C 330.862 143.258 331.883 138.5 335.284 136.233 L 365.804 115.895 Z" fill="#F2D792" style=""/>
  <path d="M 103.055 129.629 C 95.135 119.808 97.537 104.854 108.142 97.954 L 163.595 61.873 C 171.996 56.407 182.868 57.877 189.457 65.371 L 206.733 85.02 C 214.508 93.864 213.52 107.761 204.558 115.585 L 154.102 159.635 C 145.401 167.231 132.518 166.162 125.328 157.247 L 103.055 129.629 Z" fill="#FFD76F" style=""/>
  <path d="M 285.71 64.639 C 292.119 56.279 303.621 54.322 312.462 60.087 L 370.527 97.947 C 381.119 104.853 383.512 119.797 375.597 129.611 L 353.309 157.247 C 346.119 166.162 333.236 167.231 324.535 159.635 L 273.022 114.662 C 264.47 107.196 263.117 94.103 269.973 85.161 L 285.71 64.639 Z" fill="#FFD76F" style=""/>
  <rect x="172.908" y="44.425" width="134.086" height="84.494" rx="33" fill="#FBCD57" style=""/>
  <path d="M 126.896 289.272 L 126.896 235.447 L 164.989 235.447 L 164.989 244.83 L 138.849 244.83 L 138.849 257.656 L 163.029 257.656 L 163.029 267.038 L 138.849 267.038 L 138.849 279.89 L 165.099 279.89 L 165.099 289.272 L 126.896 289.272 Z M 174.271 304.41 L 174.271 248.903 L 185.864 248.903 L 185.864 255.685 L 186.388 255.685 C 186.904 254.598 187.649 253.494 188.624 252.373 C 189.618 251.234 190.907 250.288 192.489 249.534 C 194.09 248.763 196.077 248.378 198.451 248.378 C 201.543 248.378 204.395 249.149 207.008 250.691 C 209.622 252.215 211.71 254.519 213.274 257.603 C 214.839 260.669 215.62 264.515 215.62 269.141 C 215.62 273.643 214.857 277.446 213.329 280.547 C 211.82 283.63 209.76 285.97 207.146 287.564 C 204.552 289.141 201.644 289.929 198.424 289.929 C 196.142 289.929 194.2 289.57 192.599 288.852 C 191.017 288.133 189.719 287.231 188.707 286.145 C 187.695 285.041 186.922 283.928 186.388 282.807 L 186.03 282.807 L 186.03 304.41 L 174.271 304.41 Z M 185.781 269.088 C 185.781 271.489 186.131 273.582 186.83 275.369 C 187.529 277.156 188.542 278.55 189.866 279.548 C 191.192 280.529 192.802 281.02 194.697 281.02 C 196.611 281.02 198.23 280.521 199.555 279.522 C 200.88 278.506 201.883 277.104 202.564 275.317 C 203.263 273.512 203.613 271.436 203.613 269.088 C 203.613 266.758 203.272 264.707 202.591 262.938 C 201.911 261.169 200.908 259.784 199.583 258.786 C 198.258 257.787 196.629 257.287 194.697 257.287 C 192.783 257.287 191.164 257.769 189.839 258.733 C 188.532 259.696 187.529 261.063 186.83 262.833 C 186.131 264.603 185.781 266.688 185.781 269.088 Z M 223.46 289.272 L 223.46 248.903 L 235.219 248.903 L 235.219 289.272 L 223.46 289.272 Z M 229.367 243.7 C 227.619 243.7 226.119 243.148 224.867 242.044 C 223.635 240.923 223.018 239.583 223.018 238.023 C 223.018 236.481 223.635 235.159 224.867 234.055 C 226.119 232.933 227.619 232.372 229.367 232.372 C 231.115 232.372 232.606 232.933 233.839 234.055 C 235.09 235.159 235.716 236.481 235.716 238.023 C 235.716 239.583 235.09 240.923 233.839 242.044 C 232.606 243.148 231.115 243.7 229.367 243.7 Z M 284.166 248.903 L 269.344 289.272 L 256.094 289.272 L 241.271 248.903 L 253.692 248.903 L 262.498 277.787 L 262.939 277.787 L 271.717 248.903 L 284.166 248.903 Z M 290.184 289.272 L 290.184 248.903 L 301.943 248.903 L 301.943 289.272 L 290.184 289.272 Z M 296.091 243.7 C 294.342 243.7 292.843 243.148 291.591 242.044 C 290.359 240.923 289.742 239.583 289.742 238.023 C 289.742 236.481 290.359 235.159 291.591 234.055 C 292.843 232.933 294.342 232.372 296.091 232.372 C 297.839 232.372 299.33 232.933 300.563 234.055 C 301.814 235.159 302.439 236.481 302.439 238.023 C 302.439 239.583 301.814 240.923 300.563 242.044 C 299.33 243.148 297.839 243.7 296.091 243.7 Z M 321.217 235.447 L 321.217 241.124 C 321.217 242.736 320.886 244.383 320.223 246.065 C 319.579 247.73 318.714 249.307 317.629 250.796 C 316.542 252.268 315.356 253.52 314.067 254.554 L 308.878 251.637 C 309.799 250.253 310.608 248.72 311.307 247.038 C 312.025 245.356 312.384 243.402 312.384 241.177 L 312.384 235.447 L 321.217 235.447 Z M 336.737 290.035 C 334.032 290.035 331.621 289.588 329.505 288.694 C 327.389 287.783 325.714 286.443 324.481 284.673 C 323.266 282.886 322.659 280.661 322.659 277.998 C 322.659 275.755 323.092 273.871 323.957 272.347 C 324.821 270.823 325.999 269.596 327.49 268.668 C 328.98 267.739 330.673 267.038 332.569 266.565 C 334.483 266.092 336.488 265.759 338.586 265.566 C 341.052 265.321 343.04 265.093 344.549 264.883 C 346.058 264.655 347.152 264.322 347.834 263.884 C 348.514 263.446 348.855 262.798 348.855 261.94 L 348.855 261.782 C 348.855 260.117 348.303 258.829 347.198 257.918 C 346.113 257.007 344.567 256.552 342.561 256.552 C 340.445 256.552 338.761 256.998 337.51 257.892 C 336.258 258.768 335.43 259.872 335.026 261.204 L 324.15 260.363 C 324.702 257.91 325.787 255.789 327.407 254.002 C 329.026 252.197 331.115 250.813 333.673 249.85 C 336.249 248.869 339.23 248.378 342.617 248.378 C 344.972 248.378 347.226 248.641 349.379 249.167 C 351.551 249.692 353.474 250.507 355.148 251.611 C 356.841 252.714 358.175 254.134 359.151 255.868 C 360.126 257.585 360.614 259.644 360.614 262.044 L 360.614 289.272 L 349.462 289.272 L 349.462 283.674 L 349.131 283.674 C 348.45 284.936 347.539 286.049 346.398 287.012 C 345.257 287.958 343.886 288.703 342.285 289.246 C 340.684 289.772 338.835 290.035 336.737 290.035 Z M 340.105 282.308 C 341.834 282.308 343.362 281.984 344.687 281.336 C 346.012 280.669 347.051 279.776 347.806 278.655 C 348.56 277.533 348.937 276.263 348.937 274.844 L 348.937 270.56 C 348.57 270.787 348.064 270.998 347.419 271.191 C 346.793 271.366 346.085 271.532 345.294 271.69 C 344.503 271.83 343.711 271.962 342.92 272.084 C 342.129 272.189 341.411 272.285 340.767 272.373 C 339.387 272.566 338.181 272.873 337.151 273.293 C 336.12 273.714 335.32 274.283 334.75 275.002 C 334.179 275.702 333.894 276.579 333.894 277.63 C 333.894 279.154 334.474 280.319 335.633 281.125 C 336.811 281.913 338.301 282.308 340.105 282.308 Z" fill="#F2D792" style=""/>
  <text style="white-space: pre; fill: rgb(51, 51, 51); font-family: Arial, sans-serif; font-size: 28px;" x="359.147" y="298.541" transform="matrix(0.6477580666542053, 0, 0, 0.6167439818382263, 3.488903045654297, 53.016109466552706)"> </text>
</svg>